<?xml version="1.0" encoding="UTF-8"?><svg id="Layer_2" xmlns="http://www.w3.org/2000/svg" viewBox="0 0 248.07 401.3"><defs><style>.cls-1{fill:#e5112b;}</style></defs><g id="Layer_1-2"><g><path class="cls-1" d="M158.27,274.09c-.76,0-1.52-.29-2.1-.86l-33.11-32.43c-.73-.72-1.05-1.76-.84-2.76s.92-1.83,1.88-2.19l117.99-44.42c1.35-.51,2.87,.01,3.62,1.25,.75,1.23,.52,2.82-.55,3.79l-84.88,76.85c-.57,.52-1.29,.78-2.01,.78Zm-27.65-34.28l27.73,27.16,71.09-64.36-98.82,37.2Z"/><path class="cls-1" d="M125.16,401.3c-.42,0-.84-.09-1.24-.27L7.32,348.29c-.78-.35-1.37-1.02-1.63-1.83-.26-.81-.15-1.7,.29-2.43l43.03-72.18c.54-.91,1.52-1.46,2.58-1.46h0c1.06,0,2.04,.56,2.58,1.48l73.57,124.93c.66,1.13,.52,2.55-.35,3.53-.58,.65-1.4,1-2.23,1ZM12.85,344.2l104.92,47.46-66.2-112.41L12.85,344.2Z"/><path class="cls-1" d="M125.16,66.76c-.65,0-1.29-.21-1.82-.62-.74-.57-1.18-1.45-1.18-2.38V3c0-.92,.42-1.78,1.14-2.35s1.66-.78,2.55-.57l119.91,28.04c1.34,.31,2.29,1.49,2.32,2.87,.03,1.37-.88,2.59-2.21,2.95l-119.91,32.72c-.26,.07-.53,.11-.79,.11Zm3-59.98V59.83l104.69-28.57L128.16,6.78Z"/><path class="cls-1" d="M125.16,66.76c-.25,0-.51-.03-.76-.1L2.49,34.8c-1.15-.2-2.13-1.06-2.41-2.27-.11-.49-.1-.97,.01-1.42,0-.01,0-.02,0-.03,.31-1.2,1.31-2.04,2.46-2.21L124.47,.08c.89-.21,1.83,0,2.55,.57,.72,.57,1.14,1.44,1.14,2.35V63.76c0,.93-.43,1.81-1.17,2.37-.53,.41-1.18,.63-1.83,.63ZM15.45,31.99l106.71,27.89V6.79L15.45,31.99Z"/><path class="cls-1" d="M125.15,401.29c-1.04,0-2.03-.54-2.58-1.47L1.82,195.76c-.68-1.14-.52-2.59,.38-3.57L75.71,112.78,.82,33.91c-.92-.97-1.09-2.44-.41-3.59,.68-1.15,2.04-1.72,3.34-1.38l122.15,31.92c1.32,.34,2.24,1.54,2.24,2.9V398.29c0,1.35-.9,2.54-2.21,2.89-.26,.07-.53,.11-.79,.11ZM8.12,194.63l114.03,192.7V66.08L12.42,37.4,82,110.69c1.09,1.15,1.1,2.94,.03,4.1L8.12,194.63Z"/><path class="cls-1" d="M125.16,241.67c-.86,0-1.71-.37-2.29-1.06-.82-.96-.95-2.34-.31-3.44l68.47-119.03c.52-.9,1.47-1.47,2.5-1.5,1.05-.02,2.02,.47,2.59,1.34l49.53,74.61c.51,.76,.64,1.71,.36,2.58-.28,.87-.94,1.56-1.8,1.89l-117.99,44.42c-.34,.13-.7,.19-1.06,.19Zm68.65-116.33l-61.88,107.57,106.64-40.15-44.76-67.43Z"/><path class="cls-1" d="M125.16,401.3c-.57,0-1.14-.16-1.63-.48-.85-.55-1.37-1.5-1.37-2.52V63.76c0-1.35,.91-2.54,2.21-2.89L244.28,28.15c1.17-.32,2.42,.1,3.17,1.06,.74,.96,.83,2.28,.22,3.33l-118.74,205.6,110.77,108.04c.71,.69,1.03,1.7,.86,2.68s-.83,1.81-1.73,2.21l-112.44,49.97c-.39,.17-.8,.26-1.22,.26Zm3-155.52v147.9l104.18-46.3-104.18-101.6Zm0-179.73V227.47L238.82,35.86l-110.67,30.19Z"/></g></g></svg>